<svg version="1.2" xmlns="http://www.w3.org/2000/svg" viewBox="0 0 500 91" width="500" height="91">
	<title>DACHPC_Logo_14_04_2024_color_flach</title>
	<style>
		.s0 { fill: #12b2fe } 
		.s1 { fill: #323232 } 
		.s2 { fill: #00b1fe } 
	</style>
	<path id="Layer" class="s0" d="m64.3 50.3l-0.5 0.5v1.7 1.6l0.5 0.5 0.6 0.5 0.5-0.5 0.6-0.6v-1.5-1.6l-0.6-0.5c-0.3-0.3-0.5-0.6-0.6-0.6 0 0-0.2 0.3-0.5 0.5z"/>
	<path id="Layer" class="s0" d="m141.4 50.4l-0.5 0.5v1.6 1.5l0.6 0.6 0.6 0.5 0.5-0.5 0.5-0.6v-1.6-1.6l-0.5-0.5c-0.3-0.2-0.5-0.5-0.6-0.5 0 0-0.3 0.3-0.6 0.6z"/>
	<path id="Layer" class="s0" d="m178.1 50.3l-0.4 0.5v1.6 1.6l0.5 0.6 0.5 0.5 0.5-0.5 0.6-0.6v-1.5-1.6l-0.5-0.5c-0.3-0.3-0.6-0.6-0.6-0.6-0.1 0-0.3 0.3-0.6 0.5z"/>
	<path id="Layer" class="s0" d="m28.9 50.8c0.4 0.4 0.9 0.9 1.1 1.1l0.4 0.3h2.2 2.2l0.5-0.4c0.3-0.3 0.6-0.6 0.6-0.6 0-0.1-0.3-0.4-0.6-0.6l-0.5-0.5-3.3-0.1h-3.3z"/>
	<path id="Layer" class="s0" d="m83.8 50.6l-0.5 0.6v2.9 2.9l0.6 0.5 0.5 0.6 0.5-0.6 0.6-0.5v-3-2.9l-0.4-0.5c-0.3-0.3-0.6-0.5-0.7-0.5 0 0-0.3 0.2-0.6 0.5z"/>
	<path id="Layer" class="s0" d="m101.8 50.6l-0.5 0.6v2.5 2.6l0.5 0.5 0.6 0.6 0.5-0.6 0.5-0.5v-2.6-2.6l-0.5-0.5-0.6-0.5z"/>
	<path id="Layer" class="s0" d="m28 53.5v3.5l0.5 0.5 0.6 0.5 0.5-0.6 0.5-0.6v-2.1-2.2l-0.7-0.7c-0.4-0.4-0.9-1-1.1-1.2l-0.3-0.5z"/>
	<path id="Layer" class="s0" d="m35.5 51.9l-0.4 0.5v2.3 2.2l0.5 0.6 0.5 0.5 0.5-0.6 0.6-0.6v-2.1-2.2l-0.5-0.5c-0.3-0.3-0.6-0.6-0.6-0.6-0.1 0-0.3 0.2-0.6 0.5z"/>
	<path id="Layer" class="s0" d="m39.9 52.3c-0.5 0.5-0.5 0.6-0.5 1.2 0 0.6 0 0.7 0.5 1.2l0.5 0.5 0.6-0.5c0.5-0.6 0.6-0.6 0.6-1.2 0-0.6-0.1-0.7-0.6-1.2l-0.5-0.5z"/>
	<path id="Layer" class="s0" d="m56 52.3c-0.5 0.5-0.5 0.6-0.5 1.2 0 0.6 0 0.7 0.5 1.2l0.5 0.5 0.6-0.5c0.5-0.6 0.6-0.6 0.6-1.2 0-0.6-0.1-0.7-0.6-1.2l-0.5-0.5z"/>
	<path id="Layer" class="s0" d="m189.7 52.3c-0.5 0.5-0.5 0.6-0.5 1.2 0 0.6 0 0.7 0.5 1.2l0.5 0.5 0.6-0.5c0.5-0.6 0.6-0.6 0.6-1.2 0-0.6-0.1-0.7-0.6-1.2l-0.5-0.5z"/>
	<path id="Layer" class="s0" d="m59.8 55l-0.6 0.5 0.6 0.6 0.5 0.6h1.5 1.5l0.6-0.6 0.6-0.5-0.6-0.6-0.6-0.6h-1.5-1.5z"/>
	<path id="Layer" class="s0" d="m65.8 54.9l-0.5 0.6 0.5 0.5 0.6 0.5 1.6 0.1h1.6l0.5-0.6 0.5-0.5-0.6-0.5-0.5-0.6h-1.6-1.5z"/>
	<path id="Layer" class="s0" d="m73.7 54.9c-0.3 0.3-0.5 0.6-0.5 0.6 0 0.1 0.2 0.3 0.5 0.6l0.6 0.5h2.2 2.2l0.6-0.6 0.5-0.5-0.6-0.6-0.6-0.5h-2.2-2.1z"/>
	<path id="Layer" class="s0" d="m113 54.9l-0.5 0.6 0.5 0.5 0.6 0.6h2.2 2.2l0.6-0.6 0.5-0.5-0.5-0.6-0.6-0.5h-2.2-2.3z"/>
	<path id="Layer" class="s0" d="m124.2 54.9c-0.3 0.3-0.5 0.6-0.5 0.6 0 0.1 0.2 0.3 0.5 0.6l0.5 0.5h2.3 2.2l0.6-0.6 0.5-0.5-0.6-0.6-0.6-0.5h-2.2-2.2z"/>
	<path id="Layer" class="s0" d="m135.6 54.9l-0.5 0.6 0.5 0.5 0.6 0.6h2.2 2.2l0.6-0.6 0.5-0.5-0.6-0.6-0.5-0.5h-2.2-2.3z"/>
	<path id="Layer" class="s0" d="m146.9 54.9l-0.5 0.6 0.5 0.5 0.6 0.6h2.2 2.2l0.6-0.6 0.5-0.5-0.5-0.6-0.6-0.5h-2.2-2.3z"/>
	<path id="Layer" class="s0" d="m167.8 54.9l-0.5 0.6 0.5 0.5 0.6 0.6h2.2 2.2l0.6-0.6 0.5-0.5-0.5-0.6-0.6-0.5h-2.2-2.3z"/>
	<path id="Layer" class="s0" d="m179.6 54.9l-0.6 0.6 0.6 0.5 0.5 0.6h2.3 2.2l0.5-0.6 0.6-0.5-0.6-0.6-0.5-0.5h-2.3-2.2z"/>
	<path id="Layer" class="s0" d="m45.8 55.1l-0.6 0.5 0.6 0.5 0.5 0.6h2.2 2.3l0.5-0.6 0.5-0.5-0.5-0.6-0.6-0.5h-2.2-2.2z"/>
	<path id="Layer" class="s0" d="m158.2 55.1l-0.5 0.5 0.5 0.5 0.6 0.6h2.2 2.2l0.6-0.5 0.5-0.6-0.5-0.5-0.6-0.6h-2.2-2.2z"/>
	<path id="Layer" class="s0" d="m195.5 55l-0.5 0.5 0.5 0.6 0.6 0.6h2.2 2.3l0.5-0.6 0.5-0.5-0.5-0.6-0.6-0.5h-2.2-2.2z"/>
	<path id="Layer" class="s0" d="m111.7 56.3l-0.5 0.6v1 1.1l0.5 0.5 0.5 0.5 0.6-0.5 0.6-0.6v-1-1.1l-0.6-0.5-0.5-0.5z"/>
	<path id="Layer" class="s0" d="m118.7 56.3l-0.5 0.7v1 1l0.5 0.5 0.6 0.6 0.5-0.6 0.5-0.5v-1.1-1.1l-0.5-0.5-0.6-0.6z"/>
	<path id="Layer" class="s0" d="m145.7 56.3l-0.6 0.6v1 1.1l0.5 0.5 0.5 0.5 0.6-0.5 0.6-0.6v-1-1.1l-0.6-0.5-0.5-0.5z"/>
	<path id="Layer" class="s0" d="m152.6 56.3l-0.5 0.7v1 1l0.5 0.5 0.6 0.6 0.5-0.6 0.6-0.5v-1.1-1.1l-0.6-0.5-0.6-0.6z"/>
	<path id="Layer" class="s0" d="m166.6 56.3l-0.6 0.6v1 1.1l0.5 0.5 0.5 0.5 0.6-0.5 0.6-0.6v-1-1.1l-0.6-0.5-0.5-0.5z"/>
	<path id="Layer" class="s0" d="m39.8 56.4l-0.5 0.6v4.2 4.3l0.5 0.5 0.6 0.6 0.5-0.6 0.5-0.5v-4.3-4.3l-0.5-0.5-0.5-0.5z"/>
	<path id="Layer" class="s0" d="m55.9 56.4l-0.5 0.6v4.2 4.3l0.5 0.5 0.6 0.6 0.5-0.6 0.5-0.5v-4.3-4.3l-0.5-0.5-0.6-0.5z"/>
	<path id="Layer" class="s0" d="m64.4 56.4l-0.6 0.6v4.1 4.2l0.5 0.6 0.6 0.5 0.4-0.6c0.4-0.4 0.5-0.7 0.6-1 0-0.3 0.1-2.2 0.1-4.2v-3.6l-0.5-0.6c-0.3-0.3-0.6-0.5-0.6-0.5 0 0-0.2 0.2-0.5 0.5z"/>
	<path id="Layer" class="s0" d="m79.5 56.4l-0.5 0.6v1 1l0.5 0.5c0.2 0.3 0.5 0.6 0.6 0.6 0.1 0 0.4-0.3 0.6-0.6l0.5-0.5v-1.1-1l-0.5-0.5c-0.3-0.3-0.5-0.5-0.5-0.5-0.1 0-0.4 0.2-0.7 0.5z"/>
	<path id="Layer" class="s0" d="m130 56.4l-0.5 0.6v1 1l0.4 0.5c0.3 0.3 0.6 0.6 0.7 0.6 0 0 0.3-0.3 0.6-0.6l0.4-0.5v-1.1-1l-0.4-0.5c-0.3-0.3-0.5-0.5-0.6-0.5 0 0-0.3 0.2-0.6 0.5z"/>
	<path id="Layer" class="s0" d="m134.2 56.4l-0.5 0.6v3.4 3.5l0.5 0.6 0.5 0.5 0.6-0.5 0.6-0.6v-3.5-3.4l-0.5-0.5c-0.3-0.3-0.5-0.6-0.6-0.6 0 0-0.3 0.2-0.6 0.5z"/>
	<path id="Layer" class="s0" d="m178.2 56.4l-0.5 0.6-0.1 4.1v4.2l0.6 0.6 0.5 0.5 0.5-0.6c0.3-0.3 0.5-0.7 0.6-0.9 0-0.1 0-2 0-4.1v-3.8l-0.5-0.5c-0.2-0.3-0.5-0.6-0.5-0.6 0 0-0.3 0.2-0.6 0.5z"/>
	<path id="Layer" class="s0" d="m189.6 56.4l-0.5 0.6v4.2 4.3l0.5 0.5 0.6 0.6 0.5-0.6 0.5-0.5v-4.3-4.3l-0.5-0.5-0.5-0.5z"/>
	<path id="Layer" class="s0" d="m194.2 56.4l-0.6 0.6v3.5 3.5l0.6 0.6 0.6 0.5 0.5-0.6 0.5-0.6v-3.5-3.5l-0.5-0.5-0.6-0.5z"/>
	<path id="Layer" class="s0" d="m44.4 56.5l-0.6 0.6v3.4 3.5l0.6 0.6 0.6 0.5 0.5-0.5 0.5-0.5v-3.5-3.5l-0.5-0.6-0.6-0.5z"/>
	<path id="Layer" class="s0" d="m141.4 56.5l-0.5 0.6v3.5 3.4l0.5 0.6 0.5 0.5 0.6-0.5 0.6-0.6v-3.5-3.4l-0.6-0.6-0.5-0.5z"/>
	<path id="Layer" class="s0" d="m157 56.5l-0.6 0.6v4 4l0.5 0.6 0.6 0.7 0.5-0.6 0.6-0.5v-4.2-4.1l-0.5-0.5c-0.2-0.3-0.5-0.5-0.5-0.5-0.1 0-0.3 0.2-0.6 0.5z"/>
	<path id="Layer" class="s0" d="m185.4 56.6l-0.6 0.5v4.1l-0.1 4.2 0.6 0.5 0.5 0.6 0.6-0.6 0.5-0.5 0.1-4.2v-4.1l-0.5-0.6-0.6-0.5z"/>
	<path id="Layer" class="s0" d="m201.3 56.5l-0.5 0.5v3.5l-0.1 3.5 0.6 0.6 0.6 0.5 0.5-0.5 0.5-0.6v-3.5l0.1-3.4-0.5-0.6c-0.3-0.3-0.6-0.5-0.6-0.5-0.1 0-0.3 0.2-0.6 0.5z"/>
	<path id="Layer" class="s0" d="m51.6 56.7l-0.4 0.5v3.5 3.5l0.5 0.6 0.5 0.5 0.6-0.5 0.5-0.6v-3.4-3.5l-0.5-0.6c-0.3-0.2-0.6-0.5-0.6-0.5-0.1 0-0.3 0.2-0.6 0.5z"/>
	<path id="Layer" class="s0" d="m101.8 58.5l-0.5 0.7v2.4 2.5l0.5 0.6 0.6 0.5 0.5-0.5 0.5-0.6v-2.5-2.6l-0.5-0.5-0.5-0.6z"/>
	<path id="Layer" class="s0" d="m28.5 59.1l-0.5 0.6v3.4 3.4l0.5-0.6c0.2-0.3 0.7-0.8 1-1.2l0.6-0.6v-2.2-2.2l-0.5-0.6-0.6-0.5z"/>
	<path id="Layer" class="s0" d="m35.6 59.1l-0.5 0.6v2.2 2.3l0.5 0.5 0.5 0.6 0.5-0.6 0.6-0.6v-2.2-2.2l-0.5-0.6-0.6-0.5z"/>
	<path id="Layer" class="s0" d="m83.8 59.3l-0.5 0.5v2.9 2.8l0.6 0.5 0.5 0.5 0.5-0.6 0.6-0.5v-2.8-2.8l-0.5-0.5c-0.2-0.3-0.5-0.6-0.6-0.6 0 0-0.3 0.3-0.6 0.6z"/>
	<path id="Layer" class="s0" d="m113 59.9l-0.6 0.5 0.6 0.6 0.5 0.6h2.2 2.1l0.7-0.6 0.6-0.5-0.6-0.6-0.6-0.6h-2.2-2.2z"/>
	<path id="Layer" class="s0" d="m146.9 59.9l-0.6 0.5 0.6 0.6 0.5 0.6h2.2 2.2l0.6-0.6 0.6-0.5-0.6-0.6-0.6-0.6h-2.2-2.2z"/>
	<path id="Layer" class="s0" d="m167.8 59.9l-0.6 0.5 0.6 0.6 0.5 0.6h2.2 2.1l0.7-0.6 0.6-0.5-0.6-0.6-0.6-0.6h-2.2-2.2z"/>
	<path id="Layer" class="s0" d="m73.8 60l-0.6 0.5 0.7 0.6 0.6 0.6h2.2 2.2l0.5-0.6 0.6-0.6-0.6-0.5-0.7-0.6h-2.1-2.2z"/>
	<path id="Layer" class="s0" d="m124.3 60l-0.6 0.5 0.6 0.6 0.7 0.6h2.1 2.2l0.6-0.6 0.5-0.6-0.6-0.5-0.6-0.6h-2.2-2.1z"/>
	<path id="Layer" class="s0" d="m173.7 61.2c-0.5 0.5-0.5 0.5-0.6 1.6v1.1l0.6 0.6 0.5 0.5 0.6-0.5 0.6-0.6v-1-1.1l-0.6-0.5c-0.3-0.3-0.5-0.5-0.6-0.5 0 0-0.2 0.2-0.5 0.4z"/>
	<path id="Layer" class="s0" d="m72.6 61.4l-0.6 0.6v1l-0.1 0.9 0.6 0.7 0.5 0.6 0.6-0.6 0.6-0.6v-1-1.1l-0.5-0.5-0.6-0.5z"/>
	<path id="Layer" class="s0" d="m79.5 61.5l-0.5 0.6v1 1l0.6 0.6 0.5 0.5 0.5-0.5 0.6-0.6v-1.1-1.1l-0.6-0.5-0.5-0.5z"/>
	<path id="Layer" class="s0" d="m111.7 61.4c-0.5 0.4-0.5 0.4-0.5 1.5l-0.1 1.1 0.6 0.6 0.5 0.5 0.6-0.5 0.6-0.6v-1-1.1l-0.6-0.5c-0.3-0.3-0.5-0.5-0.6-0.5 0 0-0.2 0.2-0.5 0.5z"/>
	<path id="Layer" class="s0" d="m123 61.4l-0.5 0.6-0.1 1v0.9l0.5 0.7 0.6 0.6 0.6-0.6 0.6-0.6v-1-1.1l-0.6-0.5-0.5-0.5z"/>
	<path id="Layer" class="s0" d="m130 61.5l-0.5 0.6v1 1l0.5 0.6 0.6 0.5 0.5-0.5 0.5-0.6v-1.1-1.1l-0.5-0.5-0.6-0.5z"/>
	<path id="Layer" class="s0" d="m145.6 61.4c-0.5 0.4-0.5 0.4-0.5 1.5l-0.1 1.1 0.6 0.6 0.5 0.5 0.6-0.5 0.6-0.6v-1-1.1l-0.6-0.5c-0.3-0.3-0.5-0.5-0.6-0.5 0 0-0.2 0.2-0.5 0.5z"/>
	<path id="Layer" class="s0" d="m135.6 64.9l-0.6 0.5 0.6 0.5 0.6 0.6h2.2 2.2l0.6-0.6 0.5-0.5-0.6-0.6-0.5-0.5h-2.2-2.3z"/>
	<path id="Layer" class="s0" d="m29.7 65c-0.3 0.3-0.7 0.8-0.9 1.1l-0.4 0.5h3.2 3.2l0.6-0.6 0.6-0.5-0.6-0.5-0.5-0.6h-2.3-2.3z"/>
	<path id="Layer" class="s0" d="m45.8 64.9l-0.6 0.6 0.6 0.5 0.5 0.6h2.2 2.2l0.6-0.5c0.3-0.3 0.5-0.5 0.5-0.6 0 0-0.2-0.3-0.5-0.6l-0.5-0.5h-2.3-2.2z"/>
	<path id="Layer" class="s0" d="m73.8 64.9l-0.6 0.5 0.6 0.6 0.6 0.6h2.2 2.3l0.5-0.6 0.5-0.5-0.5-0.6-0.6-0.5h-2.2-2.2z"/>
	<path id="Layer" class="s0" d="m103.1 64.9c-0.2 0.3-0.5 0.5-0.5 0.6 0 0 0.3 0.3 0.6 0.5l0.5 0.6h2.2 2.2l0.6-0.6 0.6-0.5-0.6-0.5-0.5-0.6h-2.3-2.3z"/>
	<path id="Layer" class="s0" d="m113.1 65l-0.5 0.5 0.5 0.5 0.6 0.6h2.2 2.2l0.6-0.6 0.5-0.5-0.5-0.6-0.6-0.5h-2.2-2.2z"/>
	<path id="Layer" class="s0" d="m124.3 64.9l-0.6 0.5 0.6 0.6 0.5 0.6h2.3 2.2l0.6-0.6 0.5-0.5-0.6-0.6-0.5-0.5h-2.2-2.3z"/>
	<path id="Layer" class="s0" d="m147 65l-0.5 0.5 0.5 0.5 0.6 0.6h2.2 2.2l0.6-0.6 0.5-0.5-0.5-0.6-0.6-0.5h-2.2-2.2z"/>
	<path id="Layer" class="s0" d="m167.9 65l-0.5 0.5 0.5 0.5 0.6 0.6h2.2 2.2l0.6-0.6 0.5-0.5-0.5-0.6-0.6-0.5h-2.2-2.2z"/>
	<path id="Layer" class="s0" d="m195.4 65l-0.5 0.5 0.6 0.5 0.6 0.6h2.2 2.1l0.6-0.5c0.3-0.2 0.5-0.5 0.5-0.6 0-0.1-0.2-0.4-0.5-0.6l-0.6-0.5h-2.2-2.2z"/>
	<path id="Layer" class="s0" d="m51.6 66.4l-0.4 0.6v1.6 1.5l0.5 0.6 0.5 0.5 0.6-0.6 0.5-0.6v-1.5-1.5l-0.5-0.5c-0.3-0.4-0.6-0.6-0.6-0.6-0.1 0-0.3 0.2-0.6 0.5z"/>
	<path id="Layer" class="s0" d="m194.1 66.4l-0.6 0.6v1.5 1.5l0.6 0.6 0.5 0.6 0.6-0.5 0.5-0.5v-1.6-1.6l-0.5-0.6-0.6-0.5z"/>
	<path id="Layer" class="s0" d="m45.9 71c-0.3 0.2-0.6 0.5-0.6 0.6 0 0 0.3 0.3 0.6 0.5l0.6 0.5h2.2 2.2l0.5-0.5 0.6-0.6-0.6-0.5-0.5-0.6h-2.3-2.2z"/>
	<g id="DACHPC">
		<path id="Layer" class="s1" d="m113.6 10.8c0 0 1.6-1.6 2.8-3 1.5-1.6 2.4-2.5 2.5-2.6 0.1-0.2-3.2-3-7.7-4-0.7-0.2-3.2-0.5-5.6-0.5-2.2 0-4.6 0.3-5 0.4-3.3 0.8-5.5 2.2-7.7 4.2-2.9 2.9-4.6 5.3-5.4 8.9-0.1 0.6-0.4 2.3-0.6 4.2-1 12.3 4.9 17.9 5.7 18.7 3.1 2.8 5.2 3.6 8.4 4.4 2 0.5 5.9 0.6 8.6 0.2 4.9-0.8 9.9-5 9.7-5.2-0.2-0.3-1.4-1.9-2-2.6-0.3-0.4-1.1-1.4-1.8-2.3-0.7-0.9-1.4-1.5-1.4-1.5-0.1 0-0.7 0.5-1.3 0.8-2.8 1.6-4.4 2.6-7.8 2-0.8-0.1-2.6-1.2-3.4-2.3-0.5-0.7-1.3-2.2-1.4-2.7 0-0.3-0.1-0.6-0.1-0.6-0.2-0.3-0.7-3.1-0.8-5-0.2-1.9 0.1-5.3 0.4-6.5 0.1-0.3 0.2-0.7 0.2-1 0.4-1.7 0.8-2.4 1.8-3.7 0.8-0.9 1.4-1.9 3.7-2 4.5-0.3 8.2 1.7 8.2 1.7z"/>
		<path id="Layer" fill-rule="evenodd" class="s1" d="m56 1.5h7 7.2c0 0 11.9 39.6 11.8 39.6-0.1 0.1-3.4 0.1-6.8 0.1l-6.1-0.1-0.1-0.6c-0.1-0.4-0.3-1.1-0.3-1.5-0.3-1-0.7-3.3-1-4.6l-0.2-1.1h-9.2l-0.1 0.3c-0.1 0.2-0.1 0.7-0.2 1-0.1 0.4-0.2 1-0.3 1.4-0.1 0.5-0.3 1.2-0.3 1.7-0.5 2.3-0.6 2.8-0.7 3.1v0.3l-5.7 0.1h-5.6l0.1-0.3c0-0.1 10.5-39.4 10.5-39.4zm6.6 9.2c-0.1 0.6-0.3 1.4-0.4 1.8-0.1 0.5-0.3 1.7-0.5 2.7-0.6 3.5-1 5.4-1.5 7.5-0.2 1.2-0.4 2-0.4 2.2 0 0.1 0.7 0 3 0.1 2.5 0 3 0 3-0.2 0-0.1-0.1-0.6-0.2-1-0.1-0.5-0.3-1.3-0.4-1.8-0.2-1.6-0.7-4.1-1-5.4-0.1-0.4-0.2-1.1-0.3-1.7-0.1-0.5-0.3-1.2-0.4-1.7 0-0.4-0.2-1.2-0.3-1.8-0.5-1.9-0.4-1.9-0.6-0.7z"/>
		<path id="Layer" class="s1" d="m127.9 21.4l-0.1 19.8h5.9l5.8-0.1v-8l0.1-8.1h4.5 4.5l0.1 8.1v8l5.8 0.1h5.9v-19.8-19.9h-5.9-5.8v7.2 6.8h-4.6-4.6v-6.8-7.2h-5.8-5.9z"/>
		<path id="Layer" fill-rule="evenodd" class="s1" d="m24.2 1.9c6.5 0.6 10.2 3.8 11.9 5.5 2.4 2.5 3.4 4.5 3.9 8.9 0.3 2.3 0.3 7.4 0 9.5-0.6 3.7-1.5 6.1-3 8.3-0.6 0.8-1.9 2.2-2.7 2.7-0.3 0.3-0.6 0.5-0.6 0.5-0.1 0.1-0.5 0.3-0.9 0.6-1.1 0.6-2.1 1.1-3.9 1.8-0.5 0.2-2.9 0.8-3.7 0.9-4.1 0.6-4.8 0.6-12.1 0.6-3.8 0-6.9 0-6.9-0.1-0.2 0-0.2-39.2-0.1-39.3 0.2-0.2 16.3-0.1 18.1 0.1zm-1.5 7.5c-0.4 0-1.6-0.1-2.6-0.2h-1.9v11.9c0 10.4 0 12 0.1 12 0.1 0 1-0.1 2.1-0.2 4.1-0.4 5.5-1.3 6.7-4.5 1.3-3.5 1.7-10.3 0.3-14-1.2-3.6-3.1-4.7-4.7-5z"/>
		<path id="Layer" class="s0" d="m219.1 2c-0.7 0.2-2 0.4-2.2 0.5-0.1 0.1-0.4 0.2-0.5 0.2-0.6 0.2-2.5 1.1-3.3 1.6-3.1 2.1-5.6 5.2-6.7 8.6-0.8 2.2-1.3 6.8-1.2 9.6 0.1 1.7 0.3 3.5 0.4 4.3 0.5 1.9 0.6 2.7 0.9 3.6 0.5 1.3 1.1 2.7 1.6 3.6 0.2 0.4 0.4 0.7 0.4 0.7 0 0.2 1.5 2 2.3 2.7 2.1 2.1 3.9 3.1 6.7 3.8 1.7 0.4 5.6 0.4 7.1 0.1 1.5-0.4 2.5-0.8 3.8-1.5 1.5-0.7 3.3-1.8 3.3-2 0 0-0.7-1-1.1-1.4-0.1-0.1-0.3-0.3-0.4-0.5-0.2-0.3-0.2-0.3-0.8 0.1-0.2 0.1-0.6 0.4-0.8 0.5-0.2 0.1-0.7 0.4-1 0.6-1.4 0.8-3.1 1.4-4.4 1.5-1.3 0.2-4 0.1-4.7-0.1-0.3-0.1-0.6-0.2-0.7-0.2-0.1 0-0.4-0.1-0.6-0.2-2.5-1.1-3.5-1.9-4.8-3.6-1.3-1.6-2.4-4.2-2.9-6.5-0.1-0.4-0.3-1-0.3-1.3-0.3-1.1-0.4-4.9-0.3-7.6 0.1-1.5 0.2-2.9 0.3-3.1 0-0.3 0.2-0.9 0.3-1.4 0.3-1.4 0.5-2.2 1.1-3.3 0.5-1.1 1.1-2 2.1-2.9 3-2.8 5.9-3.8 9.7-3.6 1.5 0.1 3.1 0.6 3.9 1.1 0.3 0.2 0.5 0.3 0.5 0.3 0.1 0 0.7 0.3 1.3 0.7 0.7 0.4 1.3 0.8 1.4 0.8 0 0 0.3-0.4 0.6-0.8 0.4-0.3 0.7-0.8 0.9-0.9 0.3-0.4 0.3-0.4 0-0.6-0.3-0.4-3-1.9-3.8-2.2-2.2-1-3-1.1-5.6-1.2-1.2 0-2.3 0-2.5 0z"/>
		<path id="Layer" fill-rule="evenodd" class="s0" d="m185 3.2c5.5 1.6 8.5 5.8 8 11.5-0.2 1.3-0.4 2.3-0.8 3.7q-2 6-11 7.2c-1.7 0.2-3.9 0.3-6.2 0.3h-2.4v15.1l-1.2 0.1c-0.6 0.1-1.4 0.1-1.6 0.1h-0.5v-38.8l3.3-0.1c7 0 9.5 0.2 12.4 0.9zm-4.6 2c-1-0.1-2.4-0.1-4.3-0.1h-3.5v18h3.8c4.7-0.1 5.5-0.2 7.7-1 3.6-1.3 5.2-3.6 5.3-7.8 0.1-2.8-0.6-4.6-1.6-5.9-0.6-0.9-1.9-1.7-2.7-2.1-1-0.4-2.9-0.9-4.7-1.1z"/>
	</g>
	<g id="_2383478249392">
		<path id="Layer" fill-rule="evenodd" class="s2" d="m288.9 5.3c0 0 6.5 0.1 9.5 0.1 3.7 0 5.2 0.2 7.1 2.3l4.6 4.8c3.2 3 1.8 2.8 4.4 2.8h21.3c2.2 0 2.2 1.9 1.6 2.6-0.4 0.5-0.8 0.6-1.7 0.6h-30.7c-1.7 0-2.9-0.2-4.2 0.5-2.6 1.6-3.3 5.3-8.9 5.3q-4.7 0-9.5 0c-5.6 0-6.4-3.8-8.9-5.3-1.2-0.7-2.6-0.5-4.1-0.5-3.2 0-6.3 0-9.4 0-0.7 2.3-2.8 4-5.4 4-3.1 0-5.5-2.5-5.5-5.6 0-3.1 2.4-5.6 5.5-5.6 2.6 0 4.7 1.7 5.4 4q0 0 0 0c0 0 5 0 7.5 0 2.4 0 4.9-0.2 6.9 0.6 2.8 1.3 4.2 4.4 6.2 5 1.2 0.4 9.6 0.2 11.1 0.2 3.1 0 3.6-1.1 5-2.5 1.2-1.2 2.1-2.5 4.4-3.1 1.5-0.4 5.4-0.2 7.2-0.2-0.1-0.4-2.6-2.8-3.2-3.4-0.8-0.9-2.4-2.7-3.5-3.2-1.2-0.4-4.8-0.2-6.4-0.2-1.9 0-6.1 0-6.5 0-0.8 2.2-2.8 3.7-5.2 3.7-3.1 0-5.6-2.5-5.6-5.6 0-3 2.5-5.5 5.6-5.5 2.6 0 4.8 1.8 5.4 4.2q0 0 0 0zm-3 1.3c0-1.3-1.1-2.4-2.4-2.4-1.4 0-2.5 1.1-2.5 2.4 0 1.4 1.1 2.5 2.5 2.5 1.3 0 2.4-1.1 2.4-2.5zm-28.8 10.3c0-1.4-1.1-2.5-2.5-2.5-1.3 0-2.4 1.1-2.4 2.5 0 1.3 1.1 2.4 2.4 2.4 1.4 0 2.5-1.1 2.5-2.4z"/>
		<path id="Layer" fill-rule="evenodd" class="s2" d="m298.6 30.6c1.4-0.2 2.2-1.1 2.9-1.8 3.9-3.9 3.8-3.9 10-3.9h23.3c0.9 0 3-0.3 3 1.6 0 1.9-2.2 1.5-3.1 1.5h-23.4c-4.7 0-4.4-0.2-6.9 2.4-1.4 1.4-2.9 3.2-6 3.4-2.9 0.2-6.3 0-9.2 0q-4.7 0-9.3 0c-3 0-6.9 0-9.3 0q0 0 0 0c-0.7 2.3-2.8 4-5.4 4-3 0-5.5-2.5-5.5-5.6 0-3 2.5-5.5 5.5-5.5 2.6 0 4.7 1.7 5.4 4q0 0 0 0c0.9 0 27 0.1 28-0.1zm-30.9 1.6c0-1.3-1.1-2.4-2.5-2.4-1.2 0-2.4 1-2.4 2.4 0 1.2 0.9 2.5 2.4 2.5 1.4 0 2.5-1.1 2.5-2.5z"/>
		<path id="Layer" fill-rule="evenodd" class="s2" d="m322.5 5c0.1 0 12.8 0 19 0q9.4 0 18.7 0c3.4 0 4.8 0.6 7.7 1.9 0.5 0.2 2-0.8 3.3-1.2 3.4-1.2 9.6-0.7 13.4-0.7h18.8c3.4 0 4.8 1.5 6.3 3.1 2.8 2.8 2.5 2.7 6.7 2.7 1.7 0 8.2 0.1 9.3-0.1 1.5-0.2 2.1-1.1 2.9-1.8 4.2-3.8 3.3-3.9 10.2-3.9q4.7 0 9.3 0c2.4 0 9.1 0 9.4 0 0.7-2.3 2.8-4 5.3-4 3.1 0 5.6 2.5 5.6 5.6 0 3-2.5 5.5-5.6 5.5-2.5 0-4.6-1.7-5.3-4-0.3 0-8.4 0-12.4 0q-3.1 0-6.2 0c-4.9 0-4.4-0.3-7.1 2.2-1.8 1.6-2.9 3.2-5.8 3.6-1.2 0.1-10.5 0.1-12.2 0-3.8-0.1-5.2-2.6-7.6-4.8-1.3-1.2-3.2-1-5.2-1-2.1 0-22.7 0-24.7 0-2.4 0-3.3 0.3-5.2 1 0.2 0.5 1.3 1.4 1.8 1.9 0.5 0.4 1.3 1.3 1.8 1.8 0.7 0.6 1.3 1.1 1.9 1.7 0.7 0.7 1.2 1.2 1.9 1.8 1.1 1.1 2.3 2.1 3 4.2 0.6 2.1 0.3 4.2-0.6 6-1.4 2.8-5.5 5.4-9.8 3.5-1.8-0.7-2.9-2-4.1-3.1-1.3-1.2-2.6-2.3-3.8-3.4-0.8 0.4-3.5 3.4-4.3 4.3l-14.9 14.9c-3.3 3.2 0.3 7.5 3.7 5.7 0.9-0.4 1.6-1.3 2.3-2 0.9-0.9 2.4-0.3 2.6 0.8 0.4 2.1-3.1 2.5-2.8 5.6 0.3 2.3 2.8 4 5.1 2.7 1-0.6 1.5-1.4 2.3-2.1 0.9-0.8 2.4-0.2 2.5 1 0.2 2-3.4 2.5-2.8 5.8 0.4 2.1 3 3.7 5.2 2.3 0.7-0.5 1.4-1.5 2.1-2.1 1.1-0.8 2.5 0 2.6 1.2 0 1.8-3.3 2.5-2.8 5.6 0.3 2.1 2.8 3.8 5.1 2.4 0.7-0.4 4.2-3.8 4.3-4.2-0.4-0.8-3.2-3.3-4-4.1-1.2-1.2-2.8-2.5-3.5-4.6-0.7-2.3 0-4.7 1.2-6.1 0.5-0.6 1.3-1.3 2.3-1.8 1.3-0.6 1.8-0.5 3.3-0.6-0.1-4.3 3-7.2 7.1-7.1 0.1-1.3 0-1.8 0.5-3.1 0.4-0.9 0.9-1.5 1.4-2 1.4-1.4 2.7-1.9 5.2-2-0.3-4.2 3.2-7.6 7.5-7 2.3 0.3 3.3 1.6 4.5 2.7 1.2 1.3 2.4 2.4 3.6 3.6l5.5 5.5c1.1 1.1 0.7 1.2 2.4 1.2 2.6 0 14.5-0.1 14.6-0.1q0 0 0 0c0.7-2.2 2.8-3.9 5.3-3.9 3.1 0 5.6 2.5 5.6 5.6 0 3-2.5 5.5-5.6 5.5-2.5 0-4.7-1.7-5.3-4h-13.5c0 1.2 0.7 1.7 0.2 3.7-0.2 1.1-0.7 2.1-1.3 2.7-1.3 1.6-2.7 2.4-5.6 2.5-0.1 2.5-0.6 3.8-2 5.2-0.5 0.5-1.2 1-2.1 1.4-1.3 0.5-1.6 0.3-3 0.5-0.1 2.5-0.6 3.8-2 5.2-1.2 1.2-2.6 1.8-5.1 1.8 0 2.5-0.5 3.7-1.8 5.1-1.1 1.1-2.6 2-4.8 2-4.2 0-5.7-3.6-8.2-5.5-0.5 0.2-3 2.9-3.6 3.4-1.8 1.9-4.8 2.8-7.6 1.5-2.6-1.2-3.7-3.4-3.8-6.5-2.6 0-3.8-0.5-5.2-1.9-1.3-1.4-1.8-2.6-1.9-5.1-1.3-0.1-1.9-0.1-3-0.6-1-0.3-1.6-0.8-2.1-1.4-1.4-1.4-1.9-2.5-2-5.1-2.3-0.1-4.1-0.6-5.6-2.5-2.4-3.1-1.1-5.3-1.1-6.4-2 0-5.8 0.2-7.5-0.1-3.4-0.7-4.2-3-6.5-4.8-0.7-0.6-1.6-0.9-2.9-0.9q-3.7 0-7.5 0c-3 0-4.5-0.4-6.2 1.5-0.6 0.6-1.3 1.1-2 1.8-2.5 2.8-4.9 2.5-8.7 2.5-2.5 0-7.5 0-7.6 0q0 0 0 0c-0.7 2.3-2.8 4-5.3 4-3.1 0-5.6-2.5-5.6-5.5 0-3.1 2.5-5.6 5.6-5.6 2.5 0 4.6 1.7 5.3 4 0.2 0 4.4 0 6.4 0 1.6 0 4.8 0.2 6.1-0.4 1.1-0.5 2.4-2 3.4-2.9 1-1 2.1-2 3.9-2.4 1.6-0.3 10.4-0.2 12.6-0.1 3.9 0 5.4 2.5 7.8 4.8 1.4 1.3 3.2 1 5.4 1q1.6 0 3.2 0c1.1 0 2.3 0.2 2.8-0.4l18.9-19c2-2 2.8-0.3 5.6 2.2 1.2 1 3.9 3.8 5.1 4.3 1.8 0.7 3.7 0.2 4.9-0.8 1-0.9 1.9-2.6 1.5-4.5-0.5-2-3-3.8-4.5-5.2-0.5-0.6-1-1.1-1.5-1.6-3.6-3.3-5.9-6.9-12.1-6.9h-25.4c-2.8 0-12.4 0-12.6 0-0.7 2.3-2.8 4-5.3 4-3.1 0-5.6-2.5-5.6-5.5 0-3.1 2.5-5.6 5.6-5.6 2.5 0 4.6 1.7 5.3 4q0 0 0 0zm48.9 46.5c-2.5 0.7-3.5 3.8-1.6 5.8 1.6 1.6 3.2 3.1 4.7 4.7 1.6 1.6 3.1 3.1 4.7 4.6 0.8 0.8 1.5 1.6 2.3 2.4 3.4 3.4 8.1-1.3 5-4.7l-4.7-4.7c-1.5-1.6-3-3.1-4.6-4.6-0.8-0.9-1.5-1.6-2.3-2.4-0.8-0.7-1.9-1.5-3.5-1.1zm7.3-7.1c-2.6 0.6-3.8 3.5-1.9 5.7 0.8 0.9 8.3 8.3 9.3 9.4 1.9 1.8 3.4 4 5.7 3.5 2.5-0.5 3.8-3.5 1.9-5.7-1.1-1.2-3.4-3.4-4.7-4.7l-7-7c-0.7-0.8-1.8-1.5-3.3-1.2zm14.2-14.2c-2.6 0.5-3.8 3.4-2 5.7 0.6 0.7 1.6 1.6 2.3 2.3 0.8 0.8 1.6 1.6 2.4 2.4l7 7c3.6 3.7 8.1-1.3 5.3-4.4-0.7-0.8-1.6-1.6-2.3-2.4l-7.1-7c-0.8-0.8-1.5-1.5-2.3-2.3-0.7-0.7-1.7-1.6-3.3-1.3zm-7.3 7.2c-2.5 0.6-3.6 3.6-1.7 5.7l11.7 11.7c3.4 3.4 8.2-1.3 5.1-4.6l-11.7-11.7c-0.7-0.8-1.8-1.6-3.4-1.1zm79.7-30.9c0-1.3-1.1-2.4-2.5-2.4-1.2 0-2.4 1-2.4 2.4 0 1.3 0.9 2.5 2.4 2.5 1.5 0 2.5-1.1 2.5-2.5zm-32.5 35c0-1.3-1.1-2.4-2.5-2.4-1.3 0-2.4 1-2.4 2.4 0 1.3 0.8 2.5 2.3 2.5 1.5 0 2.6-1.1 2.6-2.5zm-113.1-35c0-1.3-1.2-2.4-2.5-2.4-1.3 0-2.4 1-2.4 2.4 0 1.3 0.8 2.5 2.3 2.5 1.5 0 2.6-1.1 2.6-2.5zm-31.6 35c0-1.3-1.1-2.4-2.4-2.4-1.3 0-2.4 1-2.4 2.4 0 1.3 0.8 2.5 2.3 2.5 1.5 0 2.5-1.1 2.5-2.5z"/>
		<path id="Layer" fill-rule="evenodd" class="s2" d="m449.6 42.9c-3.7 0-4.8-0.1-6.9-2.2-1.6-1.5-3-3-4.5-4.6-0.7-0.8-1.5-1.5-2.2-2.3-0.8-0.9-0.7-0.9-1.4-0.9q-1.1 0-2.2 0c-1.4 0-17.4 0.1-18.2 0-1.3-0.2-1.9-1.8-0.9-2.7 0.7-0.7 2.9-0.4 4.1-0.4h27.2c1.7 0 2.4-0.3 3.3-1.2 3.5-3.3 3.6-4.7 9-4.7q4.5 0 9.1 0c4.8 0.1 6 3.7 8.4 5.3 1.2 0.7 2.3 0.6 3.9 0.6 2.9 0 8.8 0 9 0 0.6-2.4 2.8-4 5.3-4 3.1 0 5.5 2.5 5.5 5.5 0 3.1-2.4 5.6-5.5 5.6-2.5 0-4.7-1.7-5.3-4q-0.1 0-0.1 0c0 0-4.9 0-7.4 0-2.5 0-4.7 0.3-6.6-0.8-1.3-0.7-2.8-2.4-3.9-3.5-1.8-1.8-2.7-1.5-5.9-1.5q-3.7 0-7.4 0c-2.6 0-3.1 1-4.8 2.7-1.2 1.1-2.2 2.4-4.5 2.9-2 0.5-4.9 0.1-7.1 0.2 0.2 0.4 1.3 1.4 1.6 1.7 1 1 3.8 4.3 4.9 4.8 1.3 0.6 4.4 0.3 6.1 0.3 2.1 0 6.4 0 6.5 0q0 0 0 0c0.6-2.4 2.8-4.1 5.4-4.1 3 0 5.5 2.4 5.5 5.5 0 3.1-2.5 5.6-5.5 5.6-2.5 0-4.6-1.6-5.3-3.8q0 0 0 0c-0.1 0-6.1 0-9.2 0zm45.5-11.6c0-1.3-1.2-2.4-2.5-2.4-1.3 0-2.4 1-2.4 2.4 0 1.2 0.8 2.5 2.3 2.5 1.5 0 2.6-1.1 2.6-2.5zm-28.6 9.8c0-1.4-1.1-2.4-2.4-2.4-1.3 0-2.4 1-2.4 2.4 0 1.2 0.8 2.5 2.3 2.5 1.5 0 2.5-1.1 2.5-2.5z"/>
		<path id="Layer" fill-rule="evenodd" class="s2" d="m419.4 23.4h-12.2c-1.3 0-2.5-0.1-2.6-1.4-0.2-1.7 1.4-1.8 2.4-1.8h28.3q0 0 0 0c0.6-2.5 2.8-4.3 5.5-4.3 3 0 5.5 2.5 5.5 5.5 0 3.1-2.5 5.6-5.5 5.6-2.4 0-4.5-1.5-5.2-3.6-0.2 0-11 0-16.2 0zm23.8-2c0-1.3-1.1-2.4-2.4-2.4-1.3 0-2.4 1-2.4 2.4 0 1.2 0.8 2.5 2.3 2.5 1.5 0 2.5-1.1 2.5-2.5z"/>
	</g>
</svg>